%TF.GenerationSoftware,KiCad,Pcbnew,7.0.1*%
%TF.CreationDate,2023-04-05T13:19:19-06:00*%
%TF.ProjectId,solenoid_driver,736f6c65-6e6f-4696-945f-647269766572,rev?*%
%TF.SameCoordinates,Original*%
%TF.FileFunction,Legend,Top*%
%TF.FilePolarity,Positive*%
%FSLAX46Y46*%
G04 Gerber Fmt 4.6, Leading zero omitted, Abs format (unit mm)*
G04 Created by KiCad (PCBNEW 7.0.1) date 2023-04-05 13:19:19*
%MOMM*%
%LPD*%
G01*
G04 APERTURE LIST*
%ADD10C,0.300000*%
%ADD11C,0.150000*%
%ADD12C,0.120000*%
G04 APERTURE END LIST*
D10*
X152257142Y-94836428D02*
X151757142Y-96336428D01*
X151757142Y-96336428D02*
X151257142Y-94836428D01*
X150757143Y-95765000D02*
X149614286Y-95765000D01*
X150185714Y-96336428D02*
X150185714Y-95193571D01*
X144637142Y-94836428D02*
X144137142Y-96336428D01*
X144137142Y-96336428D02*
X143637142Y-94836428D01*
X143137143Y-95765000D02*
X141994286Y-95765000D01*
X146285714Y-97142500D02*
X146500000Y-97213928D01*
X146500000Y-97213928D02*
X146857142Y-97213928D01*
X146857142Y-97213928D02*
X147000000Y-97142500D01*
X147000000Y-97142500D02*
X147071428Y-97071071D01*
X147071428Y-97071071D02*
X147142857Y-96928214D01*
X147142857Y-96928214D02*
X147142857Y-96785357D01*
X147142857Y-96785357D02*
X147071428Y-96642500D01*
X147071428Y-96642500D02*
X147000000Y-96571071D01*
X147000000Y-96571071D02*
X146857142Y-96499642D01*
X146857142Y-96499642D02*
X146571428Y-96428214D01*
X146571428Y-96428214D02*
X146428571Y-96356785D01*
X146428571Y-96356785D02*
X146357142Y-96285357D01*
X146357142Y-96285357D02*
X146285714Y-96142500D01*
X146285714Y-96142500D02*
X146285714Y-95999642D01*
X146285714Y-95999642D02*
X146357142Y-95856785D01*
X146357142Y-95856785D02*
X146428571Y-95785357D01*
X146428571Y-95785357D02*
X146571428Y-95713928D01*
X146571428Y-95713928D02*
X146928571Y-95713928D01*
X146928571Y-95713928D02*
X147142857Y-95785357D01*
D11*
%TO.C,J2*%
X151382619Y-91773333D02*
X152096904Y-91773333D01*
X152096904Y-91773333D02*
X152239761Y-91820952D01*
X152239761Y-91820952D02*
X152335000Y-91916190D01*
X152335000Y-91916190D02*
X152382619Y-92059047D01*
X152382619Y-92059047D02*
X152382619Y-92154285D01*
X151477857Y-91344761D02*
X151430238Y-91297142D01*
X151430238Y-91297142D02*
X151382619Y-91201904D01*
X151382619Y-91201904D02*
X151382619Y-90963809D01*
X151382619Y-90963809D02*
X151430238Y-90868571D01*
X151430238Y-90868571D02*
X151477857Y-90820952D01*
X151477857Y-90820952D02*
X151573095Y-90773333D01*
X151573095Y-90773333D02*
X151668333Y-90773333D01*
X151668333Y-90773333D02*
X151811190Y-90820952D01*
X151811190Y-90820952D02*
X152382619Y-91392380D01*
X152382619Y-91392380D02*
X152382619Y-90773333D01*
%TO.C,R1*%
X142882619Y-89066666D02*
X142406428Y-89399999D01*
X142882619Y-89638094D02*
X141882619Y-89638094D01*
X141882619Y-89638094D02*
X141882619Y-89257142D01*
X141882619Y-89257142D02*
X141930238Y-89161904D01*
X141930238Y-89161904D02*
X141977857Y-89114285D01*
X141977857Y-89114285D02*
X142073095Y-89066666D01*
X142073095Y-89066666D02*
X142215952Y-89066666D01*
X142215952Y-89066666D02*
X142311190Y-89114285D01*
X142311190Y-89114285D02*
X142358809Y-89161904D01*
X142358809Y-89161904D02*
X142406428Y-89257142D01*
X142406428Y-89257142D02*
X142406428Y-89638094D01*
X142882619Y-88114285D02*
X142882619Y-88685713D01*
X142882619Y-88399999D02*
X141882619Y-88399999D01*
X141882619Y-88399999D02*
X142025476Y-88495237D01*
X142025476Y-88495237D02*
X142120714Y-88590475D01*
X142120714Y-88590475D02*
X142168333Y-88685713D01*
%TO.C,Q1*%
X147224761Y-83567857D02*
X147129523Y-83520238D01*
X147129523Y-83520238D02*
X147034285Y-83425000D01*
X147034285Y-83425000D02*
X146891428Y-83282142D01*
X146891428Y-83282142D02*
X146796190Y-83234523D01*
X146796190Y-83234523D02*
X146700952Y-83234523D01*
X146748571Y-83472619D02*
X146653333Y-83425000D01*
X146653333Y-83425000D02*
X146558095Y-83329761D01*
X146558095Y-83329761D02*
X146510476Y-83139285D01*
X146510476Y-83139285D02*
X146510476Y-82805952D01*
X146510476Y-82805952D02*
X146558095Y-82615476D01*
X146558095Y-82615476D02*
X146653333Y-82520238D01*
X146653333Y-82520238D02*
X146748571Y-82472619D01*
X146748571Y-82472619D02*
X146939047Y-82472619D01*
X146939047Y-82472619D02*
X147034285Y-82520238D01*
X147034285Y-82520238D02*
X147129523Y-82615476D01*
X147129523Y-82615476D02*
X147177142Y-82805952D01*
X147177142Y-82805952D02*
X147177142Y-83139285D01*
X147177142Y-83139285D02*
X147129523Y-83329761D01*
X147129523Y-83329761D02*
X147034285Y-83425000D01*
X147034285Y-83425000D02*
X146939047Y-83472619D01*
X146939047Y-83472619D02*
X146748571Y-83472619D01*
X148129523Y-83472619D02*
X147558095Y-83472619D01*
X147843809Y-83472619D02*
X147843809Y-82472619D01*
X147843809Y-82472619D02*
X147748571Y-82615476D01*
X147748571Y-82615476D02*
X147653333Y-82710714D01*
X147653333Y-82710714D02*
X147558095Y-82758333D01*
%TO.C,J1*%
X151592619Y-103778333D02*
X152306904Y-103778333D01*
X152306904Y-103778333D02*
X152449761Y-103825952D01*
X152449761Y-103825952D02*
X152545000Y-103921190D01*
X152545000Y-103921190D02*
X152592619Y-104064047D01*
X152592619Y-104064047D02*
X152592619Y-104159285D01*
X152592619Y-102778333D02*
X152592619Y-103349761D01*
X152592619Y-103064047D02*
X151592619Y-103064047D01*
X151592619Y-103064047D02*
X151735476Y-103159285D01*
X151735476Y-103159285D02*
X151830714Y-103254523D01*
X151830714Y-103254523D02*
X151878333Y-103349761D01*
%TO.C,D1*%
X151661905Y-89292619D02*
X151661905Y-88292619D01*
X151661905Y-88292619D02*
X151900000Y-88292619D01*
X151900000Y-88292619D02*
X152042857Y-88340238D01*
X152042857Y-88340238D02*
X152138095Y-88435476D01*
X152138095Y-88435476D02*
X152185714Y-88530714D01*
X152185714Y-88530714D02*
X152233333Y-88721190D01*
X152233333Y-88721190D02*
X152233333Y-88864047D01*
X152233333Y-88864047D02*
X152185714Y-89054523D01*
X152185714Y-89054523D02*
X152138095Y-89149761D01*
X152138095Y-89149761D02*
X152042857Y-89245000D01*
X152042857Y-89245000D02*
X151900000Y-89292619D01*
X151900000Y-89292619D02*
X151661905Y-89292619D01*
X153185714Y-89292619D02*
X152614286Y-89292619D01*
X152900000Y-89292619D02*
X152900000Y-88292619D01*
X152900000Y-88292619D02*
X152804762Y-88435476D01*
X152804762Y-88435476D02*
X152709524Y-88530714D01*
X152709524Y-88530714D02*
X152614286Y-88578333D01*
X157218095Y-88922619D02*
X157218095Y-87922619D01*
X157789523Y-88922619D02*
X157360952Y-88351190D01*
X157789523Y-87922619D02*
X157218095Y-88494047D01*
D12*
%TO.C,J2*%
X148860000Y-92500000D02*
X146800000Y-92500000D01*
X149860000Y-90380000D02*
X150920000Y-90380000D01*
X150920000Y-90380000D02*
X150920000Y-91440000D01*
X148860000Y-90380000D02*
X148860000Y-92500000D01*
X146800000Y-90380000D02*
X146800000Y-92500000D01*
X148860000Y-90380000D02*
X146800000Y-90380000D01*
%TO.C,R1*%
X141420000Y-84280000D02*
X137980000Y-84280000D01*
X139700000Y-83590000D02*
X139700000Y-84280000D01*
X139700000Y-94210000D02*
X139700000Y-93520000D01*
X137980000Y-93520000D02*
X141420000Y-93520000D01*
X137980000Y-84280000D02*
X137980000Y-93520000D01*
X141420000Y-93520000D02*
X141420000Y-84280000D01*
%TO.C,Q1*%
X152440000Y-82010000D02*
X142200000Y-82010000D01*
X149170000Y-82010000D02*
X149170000Y-80500000D01*
X145469000Y-82010000D02*
X145469000Y-80500000D01*
X152440000Y-82010000D02*
X152440000Y-77369000D01*
X152440000Y-77369000D02*
X142200000Y-77369000D01*
X142200000Y-82010000D02*
X142200000Y-77369000D01*
X152440000Y-80500000D02*
X142200000Y-80500000D01*
%TO.C,J1*%
X150060000Y-103160000D02*
X150060000Y-109160000D01*
X150240000Y-100170000D02*
X150240000Y-100500000D01*
X146940000Y-109160000D02*
X146940000Y-103160000D01*
X145160000Y-100102929D02*
X145160000Y-100500000D01*
X149820000Y-103160000D02*
X149820000Y-109160000D01*
X150240000Y-103160000D02*
X150240000Y-109160000D01*
X143450000Y-103160000D02*
X151190000Y-103160000D01*
X147700000Y-109160000D02*
X146940000Y-109160000D01*
X149480000Y-100170000D02*
X149480000Y-100500000D01*
X147700000Y-103160000D02*
X147700000Y-109160000D01*
X145160000Y-103160000D02*
X145160000Y-109160000D01*
X150240000Y-109160000D02*
X149480000Y-109160000D01*
X151190000Y-103160000D02*
X151190000Y-100500000D01*
X145160000Y-109160000D02*
X144400000Y-109160000D01*
X147700000Y-100102929D02*
X147700000Y-100500000D01*
X149580000Y-103160000D02*
X149580000Y-109160000D01*
X149860000Y-97790000D02*
X151130000Y-97790000D01*
X144400000Y-100102929D02*
X144400000Y-100500000D01*
X151190000Y-100500000D02*
X143450000Y-100500000D01*
X149940000Y-103160000D02*
X149940000Y-109160000D01*
X146050000Y-100500000D02*
X146050000Y-103160000D01*
X150180000Y-103160000D02*
X150180000Y-109160000D01*
X144400000Y-109160000D02*
X144400000Y-103160000D01*
X151130000Y-97790000D02*
X151130000Y-99060000D01*
X149480000Y-109160000D02*
X149480000Y-103160000D01*
X148590000Y-100500000D02*
X148590000Y-103160000D01*
X149700000Y-103160000D02*
X149700000Y-109160000D01*
X146940000Y-100102929D02*
X146940000Y-100500000D01*
X143450000Y-100500000D02*
X143450000Y-103160000D01*
%TO.C,D1*%
X154220000Y-87830000D02*
X154220000Y-84890000D01*
X154100000Y-87830000D02*
X154100000Y-84890000D01*
X155120000Y-84890000D02*
X149680000Y-84890000D01*
X148660000Y-86360000D02*
X149680000Y-86360000D01*
X155120000Y-87830000D02*
X155120000Y-84890000D01*
X154340000Y-87830000D02*
X154340000Y-84890000D01*
X149680000Y-84890000D02*
X149680000Y-87830000D01*
X156140000Y-86360000D02*
X155120000Y-86360000D01*
X149680000Y-87830000D02*
X155120000Y-87830000D01*
%TD*%
M02*
